<?xml version="1.0" standalone="no"?>
<!DOCTYPE svg PUBLIC "-//W3C//DTD SVG 20010904//EN"
 "http://www.w3.org/TR/2001/REC-SVG-20010904/DTD/svg10.dtd">
<svg version="1.0" xmlns="http://www.w3.org/2000/svg"
 width="512.000000pt" height="512.000000pt" viewBox="0 0 512.000000 512.000000"
 preserveAspectRatio="xMidYMid meet">

<g transform="translate(0.000000,512.000000) scale(0.100000,-0.100000)"
fill="#000000" stroke="none">
<path d="M280 4661 c-69 -21 -130 -73 -166 -141 -18 -34 -19 -94 -22 -1537
l-2 -1503 2470 0 2470 0 -2 1503 c-3 1443 -4 1503 -22 1537 -26 49 -74 98
-121 123 l-40 22 -2270 2 c-1249 1 -2281 -2 -2295 -6z m3715 -812 c347 -165
635 -305 640 -311 7 -6 4 -14 -7 -22 -17 -12 -18 -41 -18 -362 l0 -349 50 -43
50 -43 0 -170 0 -169 -175 0 -175 0 0 168 0 168 45 44 45 44 0 293 0 292 -32
9 c-30 8 -28 9 75 57 59 27 107 53 107 57 0 30 -53 37 -455 57 -225 12 -504
26 -618 32 -186 10 -210 9 -232 -5 -44 -29 -46 -102 -2 -130 17 -11 141 -20
527 -40 278 -15 516 -26 530 -26 14 0 20 -4 15 -9 -6 -4 -238 -117 -516 -250
-429 -205 -510 -240 -530 -232 -20 7 -556 263 -1127 536 -89 43 -161 82 -160
87 2 5 201 103 443 219 242 116 532 256 645 310 123 59 213 97 225 94 12 -2
304 -140 650 -306z m-2096 286 c48 -24 56 -81 16 -120 l-24 -25 -641 0 -641 0
-24 25 c-33 33 -32 70 4 106 l29 29 627 0 c530 0 630 -2 654 -15z m20 -381
c41 -52 15 -117 -51 -129 -18 -3 -309 -5 -646 -3 l-614 3 -24 28 c-31 36 -31
71 1 102 l24 25 645 0 645 0 20 -26z m-4 -359 c33 -32 33 -78 0 -110 l-24 -25
-638 0 c-696 0 -673 -2 -687 56 -9 34 9 79 37 92 15 7 233 11 655 11 l633 1
24 -25z m929 -440 c224 -107 424 -199 446 -205 21 -6 56 -8 77 -4 21 3 225 95
453 204 l415 199 3 -147 c1 -81 0 -156 -2 -168 -4 -16 -81 -57 -333 -179 -385
-186 -432 -204 -532 -211 -116 -9 -180 11 -453 142 -134 64 -293 140 -355 169
-63 30 -116 62 -122 73 -10 19 -17 322 -7 322 2 0 187 -88 410 -195z m-930 76
c33 -31 34 -76 4 -108 l-21 -23 -648 0 -648 0 -20 26 c-12 15 -21 37 -21 49 0
29 35 73 63 78 12 3 302 4 644 3 l621 -1 26 -24z m-860 -517 c3 -9 6 -87 6
-175 l0 -159 -26 -10 c-14 -6 -141 -10 -287 -10 -221 0 -266 2 -285 16 -21 15
-22 21 -22 173 0 109 4 161 12 169 9 9 90 12 304 12 257 0 293 -2 298 -16z
m841 1 c-53 -19 -112 -82 -121 -131 -4 -21 -3 -78 2 -127 5 -49 7 -90 5 -93
-2 -2 -70 -4 -150 -4 -202 0 -191 -11 -191 189 0 109 4 161 12 169 9 9 77 12
248 12 215 -1 232 -2 195 -15z m138 8 c-7 -2 -21 -2 -30 0 -10 3 -4 5 12 5 17
0 24 -2 18 -5z m137 -183 c91 -11 171 -22 178 -25 23 -8 12 -41 -28 -80 -22
-21 -40 -44 -40 -50 0 -5 65 -75 145 -155 89 -89 145 -152 145 -165 0 -25
-118 -145 -144 -145 -12 0 -79 59 -171 150 l-151 150 -44 -45 c-48 -49 -64
-55 -78 -27 -6 9 -20 104 -33 210 -25 211 -24 218 31 207 14 -2 99 -14 190
-25z"/>
<path d="M93 1275 c12 -83 67 -159 147 -201 34 -18 111 -19 2320 -19 l2285 0
40 22 c77 41 130 116 142 198 l6 45 -2473 0 -2473 0 6 -45z"/>
<path d="M1423 696 c-62 -106 -113 -200 -113 -208 0 -39 -17 -38 1250 -38
1267 0 1250 -1 1250 38 0 8 -51 102 -112 208 l-113 194 -1025 0 -1025 0 -112
-194z"/>
</g>
</svg>
